<?xml version="1.0" encoding="utf-8"?>
<!-- Generator: Adobe Illustrator 26.0.1, SVG Export Plug-In . SVG Version: 6.00 Build 0)  -->
<svg version="1.1" id="Layer_1" xmlns="http://www.w3.org/2000/svg" xmlns:xlink="http://www.w3.org/1999/xlink" x="0px" y="0px"
	 viewBox="0 0 299.1 387.7" style="enable-background:new 0 0 299.1 387.7;" xml:space="preserve">
<style type="text/css">
	.st0{fill:#FEFEFE;}
	.st1{fill:#020202;}
	.st2{fill:#FBFBFB;}
	.st3{fill:#010101;}
	.st4{fill:#363536;}
	.st5{fill:#53514D;}
	.st6{fill:#ADA821;}
	.st7{fill:#4C403D;}
	.st8{fill:#484241;}
	.st9{fill:#826E69;}
	.st10{fill:#EC3338;}
	.st11{fill:#F6987E;}
	.st12{fill:#FEF215;}
	.st13{fill:#01A75A;}
	.st14{fill:#FDFDFD;}
	.st15{fill:#404096;}
	.st16{fill:#FCF215;}
	.st17{fill:#F5987E;}
	.st18{fill:#F6F6F6;}
	.st19{fill:#F3977D;}
	.st20{fill:#F59A7F;}
	.st21{fill:#FCFCFC;}
	.st22{fill:#00AE5C;}
	.st23{fill:#F4977E;}
	.st24{fill:#F3977E;}
	.st25{fill:#05A258;}
	.st26{fill:#F8F8F8;}
	.st27{fill:#F4F4F4;}
	.st28{fill:#ED957C;}
	.st29{fill:#E13338;}
	.st30{fill:#211D1D;}
	.st31{fill:#E73338;}
	.st32{fill:#09A5DC;}
	.st33{fill:#EC947B;}
	.st34{fill:#EFEFEF;}
	.st35{fill:#EFE916;}
	.st36{fill:#EAEAEA;}
	.st37{fill:#E0DC18;}
	.st38{fill:#EFEB16;}
	.st39{fill:#E5E117;}
	.st40{fill:#DB8C75;}
	.st41{fill:#0BA1D6;}
	.st42{fill:#C17C69;}
	.st43{fill:#F3F016;}
	.st44{fill:#C93438;}
	.st45{fill:#C1BD1D;}
	.st46{fill:#D1CC1B;}
	.st47{fill:#C73338;}
	.st48{fill:#CBCBCB;}
	.st49{fill:#138FBB;}
	.st50{fill:#DAD51A;}
	.st51{fill:#5A4F4D;}
	.st52{fill:#0D9CCF;}
	.st53{fill:#D1CB1B;}
	.st54{fill:#DA3337;}
	.st55{fill:#DBD819;}
	.st56{fill:#4F4F81;}
</style>
<g>
	<g>
		<g>
			<path class="st0" d="M0.1,193.3c0-62.9,0-125.9-0.1-188.8C0,0.9,0.6,0,4.4,0c96.7,0.1,193.5,0.1,290.2,0c4.2,0,4.5,1.2,4.5,4.8
				c-0.1,126.1-0.1,252.1,0,378.1c0,3.8-0.7,4.7-4.6,4.7c-96.6-0.2-193.1-0.2-289.7,0c-4.3,0-4.8-1.2-4.8-5.1
				C0.1,319.5,0.1,256.4,0.1,193.3z"/>
			<path class="st1" d="M150.8,3.4c42.1,0,84.2,0.1,126.3-0.2c5.9,0,6.8,1.8,6.8,7.1c-0.2,66.9-0.5,133.8,0.1,200.7
				c0.2,20.8-4.4,40.1-12.9,58.6c-18.5,40.3-48.3,66.8-92.7,75.5c-53.3,10.4-110.8-12.4-138.7-55.8c-14-21.8-21.6-45.7-21.5-72
				c0.2-69.4,0.1-138.8,0-208.2c0-4.6,1-5.9,5.8-5.9C66.2,3.5,108.5,3.4,150.8,3.4z"/>
			<path class="st2" d="M150.5,9.5c40.9,0,81.7,0.1,122.6-0.1c4.5,0,5.5,1.1,5.5,5.6c-0.2,67.1-0.4,134.2,0,201.2
				c0.2,29-9.3,54.5-25.8,77.5c-21.5,29.9-51.8,45.2-88,48.5c-70.3,6.2-127-37-141.1-106.7c-0.8-4.1-1.2-8.1-1.2-12.3
				c0-69.4,0.1-138.8-0.1-208.2c0-4.3,0.8-5.6,5.4-5.6C68.8,9.6,109.7,9.5,150.5,9.5z"/>
			<path class="st3" d="M150.5,13.7c39.4,0,78.8,0.1,118.2-0.1c4.3,0,5.3,1.1,5.3,5.4c-0.1,68.9,0.3,137.7-0.4,206.5
				c-0.2,20.3-8.5,39.1-19.4,56.2c-21.4,33.7-53.1,51.7-92,55C98.5,342,42.7,303.8,28.3,233.4c-0.5-2.6-0.6-5.3-0.6-8
				c0-68.7,0-137.3-0.1-206c0-4.8,1.1-5.9,5.9-5.9C72.4,13.8,111.5,13.7,150.5,13.7z"/>
			<path class="st0" d="M55.1,272.2c-9.8-17.2-15.8-35.3-15.6-55.5c0.4-62.4,0.2-124.8,0-187.2c0-4.7,1.1-5.8,5.8-5.8
				c70.1,0.2,140.2,0.2,210.2,0c4.7,0,6.2,0.9,6.2,6c-0.2,62.8-0.4,125.6,0,188.3c0.1,19.9-5.6,37.7-15.3,54.5
				c-7.1,2.8-14.5,1.4-21.7,1c-2.6-0.1-3.3-2.6-3.3-4.8c-0.2-15.8-0.2-31.5,0-47.3c0-2.9,1.4-4.4,4.5-4.8c6.4-0.8,7.1-1.8,7.1-8.3
				c0.1-18.5-0.1-36.9,0.1-55.4c0-6.1-2.6-10.6-7.2-14.3c-4.5-3.6-8.1-2.9-11.2,1.9c-0.2,0.3-0.4,0.6-0.5,0.9
				c-1.3,2-2.1,5.4-4.9,5.1c-3.4-0.4-3.4-4.1-4.2-6.8c-1-3.1-1.2-6.4,0-9.5c2.5-6.5,5.7-12.8,9.3-18.7c1.6-2.6,4-4,7.1-4
				c1.6,0,3.2,0,4.8,0c9.5-0.2,10.5,2.1,7.1-9.5c-3-10.1-6.7-20-11.1-29.7c-7.2-16-19.8-24.4-37-26.3c-5.2-0.6-9.9,0.7-13.3,4.4
				c-3.2,3.5-7,5.4-11,7.3c-8.1,3.7-15.8,7.9-20.3,17.4c3.7-0.7,5.7-2.7,8.1-4.1c5.9-3.8,12.3-6.6,19.1-8.3c3.2-0.8,7.2-1.9,9.7,0.9
				c2.7,3,0,6.4-1.2,9.5c-1.7,4.7-4.8,7.1-10.2,6.9c-10.1-0.3-16.1,4.7-19.2,14.4c-2.1,6.8-7.4,12.2-9.9,19
				c-0.6,1.7-2.3,2.8-3.8,1.1c-5.6-6.5-12.7-11.6-17.5-18.9c-0.5-0.8-0.7-1.6-0.9-2.5c-0.9-4.1-1.9-8.2-3.7-12
				c-0.9-2.6-1.8-5.2-3.5-7.4c-2.6-2.8-1.9-5.2,0.5-7.9c5.3-6,10.9-11.8,16.7-17.5c-5.9,5.8-11.8,11.6-17.4,17.7
				c-2.6,2.8-5.4,3.6-9.1,3c-7.9-1.4-9.6,0.2-8.1,7.9c0.8,4-1.3,5.8-4.5,5.3c-3.5-0.5-5.2,1.2-7.4,3.1c-3.3,2.9-3.1,5.4-0.3,8.6
				c10.9,12.5,21.2,25.6,31.8,38.4c1.5,1.8,2.8,3.7,4.4,5.4c3,3.2,5.6,6.5,5.1,11.3c-0.2,2,0.9,3.8,1.9,5.5c0.7,1.6,2.1,2.3,3.6,2.9
				c2.8,1.7,3.8,4,0.4,5.5c-5,2.3-9.9,5.8-15.7,0.5c-3.7-3.4-8.9-1.7-12.2,2.5c-4.3,5.5-4,12.2-4.2,18.5c-0.5,14.3-0.4,28.7-0.2,43
				c0.1,5.2-1.6,10.3-1,15.5c0.4,2.8-0.4,7.6,2.9,7.5c4.2-0.1,2.4-4.9,2.3-7.5c-0.2-21.7,1.7-43.3,1.3-65c-0.1-3.1,0.7-6.1,1.8-8.9
				c0.8-2.2,2.5-3.6,5.1-2.8c2.5,0.8,3.4,2.8,2.4,5.1c-3.7,8.5-2.8,17.6-3.8,26.4c-0.6,5.1,0.8,10.3,0.8,15.5
				c-0.1,11.6,0,23.3-0.1,34.9c0,6-2.4,10.3-7.7,13.1c-6.4,3.3-13,6-19.9,8c-4,1.2-7.6,2.7-10.6,5.9C63.3,274.7,59.2,275,55.1,272.2
				z"/>
			<path class="st4" d="M159.3,53.1c4.5-2.5,9.1-4.5,12.7-8.6c3.3-3.8,8.4-4.8,13.8-4.1c18.6,2.2,31.3,11.8,38.6,29.1
				c4.8,11.2,8.7,22.7,12.3,34.3c1.3,4.2-0.3,5.1-3.9,5.1c-1.2,0-2.6,0.3-3.8,0.1c-9.8-2-14.5,2.9-18.4,11.4
				c-5.5,12.3-6.5,17.7-1.5,26.1c1.8-3,3.4-5.9,5.1-8.7c2.3-3.7,5.6-4.4,9.3-2.6c6.4,3.1,10.7,8.3,10.8,15.5
				c0.3,20.4,0.2,40.9,0.2,61.3c0,5.1-3.7,7-11.9,6.1c0,17,0.1,34.1-0.1,51.1c0,3.1,1.4,3.4,3.9,3.4c6.6-0.1,13.3-0.1,19.9-0.1
				c-0.7,1.7-1.4,3.4-3.2,4.3c-2.4,1.4-5.1,1.5-7.8,1.5c-56.4,0-112.9,0-169.3,0c-2.7,0-5.4-0.1-7.8-1.4c-1.1-1.5-2.1-3.1-3.2-4.6
				c5.1,0.5,10,0.6,12.8-5c0.8-1.6,2.9-1.9,4.7-2.3c7.8-2,15.2-5.2,22.6-8.4c5.8-2.4,8-6.5,8.3-12.4c0.7-14.5-0.4-29-0.5-43.5
				c-0.1-6.8,0.2-13.6,0.5-20.4c0.3-4.6,1.1-9.3,3.2-13.5c0.8-1.5,1-2.6-0.8-3.5c-1.8-0.9-3.1-0.7-4,1.1c-1.2,2.3-1.4,4.8-1.4,7.3
				c-0.5,23.3-1,46.6-1.5,69.9c0,1.1,0,2.2,0,3.2c-0.1,2.7-1.8,3.8-4.1,4.2c-2.9,0.6-3.2-1.9-3.5-3.7c-0.4-2.3-0.4-4.6-0.3-7
				c0.4-21.9,0.9-43.7,1.2-65.6c0.1-4.9,1.9-9.1,4.9-12.8c3.5-4.3,9.4-5.7,13.3-2c4.1,3.9,7.4,2.8,11.4,0.9c1.7-0.8,3.5-1.4,5.6-2.2
				c-1.2-2-3.3-1.8-4.6-2.8c0.7-2.7,2.7-1.6,4.3-1.5c2.7,0.2,5.3,0.5,7.9-0.3c4.6-2,9.4-3.5,14-5.5c3.1-1.4,2.7-3,0.1-4.4
				c-3.7-2.2-8-1.6-12.4-2c1.9,1.1,3.4,2.4,2.7,4.5c-0.7,2.1-2.7,2-4.5,2.2c-2.5,0-4.8-1-7.3-0.8c-2.1,0.2-3.9-0.3-3.2,3.4
				c0.8,3.6-2,2.5-3.9,1.5c-2.1-2.3-3.6-4.9-2.4-8.1c0.9-2.5-1-3.6-2.2-5c-13.3-16.2-26.5-32.4-40-48.5c-2.7-3.2-3.5-5.4,0.4-7.9
				c1.5-1,2.7-2.4,4-3.6c1.4-1.4,2.8-3.1,4.8-0.8c1.5,1.6,2.5,0,3.7-0.6c1.8-0.9,0.5-2,0.1-3.1c-2.5-7.8,0.5-11.5,8.5-9.8
				c4.4,0.9,7.4,0,10.2-3.5c5.1-6.2,12-10.7,16.1-17.8c0.5-0.9,1.2-1.5,2.1-1.1c0.7,0.3,1.5,1,1.9,1.7c0.7,1.2-0.3,1.8-1.2,2.5
				c-7,5.3-12.2,12.5-18.8,18.4c-3.2,2.8,0.3,3.8,0.9,5.6c0.4,1.1-0.3,1.3-1.1,1.4c-4.4-1.5-8.7-4.7-13.2-1.3
				c-0.4,0.5,0.2,0.4,0.2,0.6c1.8,3.5,5.7,4.2,8.3,6.6c2,1.8,4.3,4,2.5,6.9c-1.9,3.1-4.7,1.4-7.1,0.3c-1.3-0.6-2.3-1.7-3.8-1.9
				c0.5,1.6,1.9,2.6,2.5,4.1c0.2,0.7,0.1,1.4-0.2,2c1.1,4.4,4.7,6.9,7.4,10.1c3.7,4.4,7,9,10.4,13.5c1.2,2.4,3.7,3.9,5,6.3
				c2,3.1,5.4,5.1,7.1,8.6c4.6,6.1,9.8,10.7,18.2,8.2c7.8,3.6,13.7-0.7,19.9-4.4c2.1-1.3,2.8-3.1,2-5.5c-0.2-0.5-0.3-1-0.5-1.5
				c-2-4.2-3-10.4-7.2-11.4c-3.3-0.7-4.7,5.8-7.2,8.9c-3.8,4.9-7,10.5-12.5,13.9c-3.1,1-5.5,0.1-7.3-2.5c-1.6-2.3-4.1-3.9-5.7-6.2
				c-1.8-3.3-5.2-5.2-7-8.3c-1.4-2.3-3.7-3.8-4.9-6.3c-4.2-6.2-9.1-11.8-12.8-18.3c0.1-0.8,0.6-1.4,1.3-1.7c4.1,1.6,8,2.2,11-2
				c0.6-0.5,1.2-0.9,2-0.6c0.3,2.6,1.9,4.6,3.7,6.3c5.3,5,11,9.7,15.4,16.6c2.3-10.4,9.7-17.3,12.8-26.6c2.7-8.1,9.9-10.5,18.1-10.4
				c2.3,0,5.3,1.3,6.8-1.5c2-3.7,4-7.6,4.4-12c0.2-2.2-1.8-1.7-3.1-1.8c-4.9-0.1-9.5,1.4-13.9,3.3c-3.9,1.7-7.7,3.7-11.5,5.5
				c-2.5,0.1-1.3-1.5-1.1-2.5c3.1-3,6.8-4.8,10.8-6c3.4-1.4,7.1-2.2,10.2-4.3c-0.3-0.5-0.8-0.8-1.1-1.2c-2.5-1.7-4.5,1.6-6.9,0.7
				C159.8,54.4,159.2,54,159.3,53.1z"/>
			<path class="st0" d="M240,282.1c-22.5,28.9-53.2,42.3-88.7,42.7c-34,0.3-63.3-13-86.3-38.8c-1.2-1.3-2.3-2.7-3.5-4
				c0.9-3.6,3.9-2.5,6.1-2.5c13.8-0.1,27.5-0.1,41.3-0.1c41.1,0,82.2,0,123.3,0.1C235,279.5,238.5,278.2,240,282.1z"/>
			<path class="st5" d="M240,282.1c-0.9-2.5-3-1.4-4.6-1.4c-56.5-0.1-112.9-0.1-169.3,0c-1.5,0-3.7-1.1-4.6,1.3
				c-0.8-1.4-1.6-2.7-2.5-4.1c1.4-1.2,3.1-0.6,4.7-0.6c58,0,115.9,0,173.9,0c1.5,0,3.2-0.6,4.6,0.7
				C240.9,279.1,241.9,281.4,240,282.1z"/>
			<path class="st6" d="M242.2,278c-1.4-0.1-2.8-0.2-4.3-0.2c-58.4,0-116.7,0-175.1,0c-1.2,0-2.5,0.1-3.8,0.2
				c-0.3-0.4-0.5-0.7-0.8-1.1c61.7,0,123.3,0,185-0.1C242.9,277.2,242.5,277.6,242.2,278z"/>
			<path class="st7" d="M135.6,153.1c-3.1,1.7-6.3,1.1-9.5,0.4c-1.2-0.3-2.3-0.8-3.3,0.3c-1.8-0.2-2.2-1.5-2.2-3
				c0-1.1,4.5,2.2,1.7-1.9c-0.6-0.8-0.4-4.1,2.8-4.4c3.4-0.3,6.6,0.4,9.8,1.1C137.6,147.9,135.5,150.6,135.6,153.1z"/>
			<path class="st8" d="M148.5,65.6c-0.1,0.8-1.1,1.7,0.2,2.4c-0.5,0.5-1,1.1-1.6,1.3c-2.6,0.8-4.7,5.7-7.5,2.7
				c-2-2.2,1.7-4.8,3.2-7c3.9-6.1,10.3-9,16.5-11.9c0.4,0.3,0.7,0.6,1.1,0.9c-0.7,3.9-5.1,3.4-6.9,6
				C152.2,62.2,148.7,62.4,148.5,65.6z"/>
			<path class="st9" d="M116.1,88.4c-0.4,0.4-0.7,0.7-1.1,1.1c-3.7-3.2-3.4-7.8-3.8-12.1c0.2-0.6,0.5-1,1.1-1.2
				C114.3,80.1,115.4,84.2,116.1,88.4z"/>
			<path class="st9" d="M107.8,70c0.3-0.3,0.6-0.7,1-1c2,2,3,4.5,3.6,7.2l-0.4,0.3C108.6,75.6,107.5,73.2,107.8,70z"/>
			<path class="st10" d="M138.6,226.5c0-13.3,0.1-26.5-0.1-39.8c0-3.5,0.6-5.1,4.6-5.1c22.9,0.2,45.8,0.1,68.7,0
				c3.2,0,4.3,0.8,4.4,4.2c0.2,11.4,0.3,11.4-11.1,11.4c-16.1,0-32.2,0.1-48.3-0.1c-4.2-0.1-5.5,1.1-5.4,5.4
				c0.2,21.3-0.1,42.6,0.2,64c0.1,5.8-3,5.1-6.7,5.2c-3.9,0.1-6.7,0.2-6.5-5.4C138.9,253,138.6,239.7,138.6,226.5z"/>
			<path class="st11" d="M82.6,270.1c6-2.7,12-5.7,18.1-8c7.8-3,10.8-9.1,11.1-16.7c0.8-18.3-0.3-36.6-1-54.8
				c-0.3-6.2,0.6-12.1,3.2-17.8c1.6-3.4,3.2-4.5,6.8-1.9c5.8,4.1,8.3,8.9,8.7,16.4c1,21-5,40.8-8.5,61c-0.9,5.4-1.3,10.5,0.8,15.8
				c1.8,4.4,0.2,7.3-3.8,7.4c-11.7,0.2-23.5,0.1-35.2,0.1C82.7,271,82.6,270.5,82.6,270.1z"/>
			<path class="st12" d="M216.4,248.7c0,6.3-0.1,12.5,0,18.8c0.1,2.8-0.5,4.2-3.8,4.1c-9.5-0.2-18.9-0.2-28.4,0
				c-2.8,0-3.7-0.8-3.6-3.7c0.1-12.7,0.2-25.4,0-38.1c0-3.2,1.1-3.8,4-3.8c9.3,0.2,18.6,0.2,27.9,0c3-0.1,4,0.9,3.9,3.9
				C216.3,236.2,216.4,242.5,216.4,248.7z"/>
			<path class="st0" d="M132.4,174c12.5-10.2,26.2-18.3,42.2-21.9c8.5-1.9,17.2-3.5,25.7-5.4c3.1-0.7,4.6,0,5.3,3.2
				c0.8,3.9,1.9,7.7,1.5,11.6c-0.8,9.1-6,13.8-15,13.8c-17.9,0-35.8,0-53.6-0.1c-1.9,0-3.8,0-5.7,0
				C132.7,174.9,132.6,174.4,132.4,174z"/>
			<path class="st13" d="M158.1,237.4c0-9.9,0.1-19.7-0.1-29.6c-0.1-3.3,1-4.3,4.3-4.3c17,0.1,34,0.1,51-0.1c4.3,0,4.1,2.3,3.9,5.1
				c-0.1,2.7,1,5.8-3.8,5.8c-12.9-0.2-25.8,0.1-38.7-0.2c-4.4-0.1-5.9,1-5.8,5.6c0.3,15.4-0.1,30.8,0.2,46.2
				c0.1,4.7-1.8,5.2-5.7,5.2c-4.1,0.1-5.7-0.9-5.5-5.3C158.3,256.5,158.1,246.9,158.1,237.4z"/>
			<path class="st14" d="M195.7,73.9c0,8.3-0.2,16,0.1,23.7c0.1,3.8-0.9,5.8-5.3,5.5c-0.7-8.3-1.4-16.7-2.1-25.1
				c-0.1-1.2,0.2-3.2-0.5-3.6c-5.2-3.4-1.5-6.1,0.3-9.1c3.9-6.4,6.7-12.9,0.2-20.7c13,2.2,22.8,7,28.8,17.8
				c6.3,11.3,10.4,23.5,14.6,35.7c1.8,5.4-2.7,3.1-4.6,3.6c-4,1-5.3,0.1-3.7-4.4c3.4-9.8,1.2-15.5-7.3-20.5
				c-1.1-0.6-2.1-1.3-3.5-1.1C207.3,76.2,201.8,74.8,195.7,73.9z"/>
			<path class="st15" d="M208.9,172.2c3.6-8.6,3.1-17.6,6.1-25.9c1.2-3.3,2.3-7.1,6.7-6.1c4,0.9,7.3,3.9,7.4,8.1
				c0.2,20.1,0.1,40.2,0.1,60.3c0,1.8-0.7,3.3-2.7,3.4c-1.8,0.1-3.1-1.1-3.4-2.8c-0.3-1.5-0.3-3.2-0.3-4.8c0-16.3,0-32.6-0.1-49
				c0-2.5,0.5-5.5-3.3-5.5c-3.8,0-3.2,3-3.4,5.5c-0.3,4.6-0.7,9.3-0.9,13.9C215.1,174,211.9,171.9,208.9,172.2z"/>
			<path class="st16" d="M82.2,79.2c1.2,1.8,1.7,2.8,2.4,3.6c14.2,17,28.4,34,42.6,51c1.2,1.5,2.3,2.6-0.2,4c-1.8,1-3,3.5-5.2,0.8
				c-2.4-2.9-4.8-5.8-7.2-8.6c-11.7-14-23.3-28-35-42.1c-0.8-1-2.6-1.8-1.4-3.5C79.3,82.9,80.5,81.5,82.2,79.2z"/>
			<path class="st17" d="M170.2,141.9c-2.6-0.5-2.9-3.2-4.1-5c-1.4-2.1,0.6-2.8,2-3.5c7-4.3,14.5-7.8,22.3-10.4
				c3.7-1.2,6.6-2.8,7.3-6.8c0.6-3.1,2.1-2.7,4.1-1.5c1.7,1,3.5,1.9,5.2,2.8c1.1,0.6,1.7,1.2,0.9,2.5c-3.4,5.3-5.2,11.6-12.4,14
				c-7.5,2.5-14.8,5.2-22.4,7.1C172.2,141.4,171.3,141.6,170.2,141.9z"/>
			<path class="st11" d="M140.2,107.2c1.4,0.8,2.3,1.3,3.2,1.8c7.6,4,7.8,4.1,2.6,11.5c-8.9,12.3-7.2,12.9-18.5,1.6
				c-4.7-4.7-8.3-10.3-12-15.7c-1.5-2.1-1.3-3.4,0.8-4.8c1.7-1.1,2.9-3.1,5.4-0.9c4.3,3.8,8.5,7.7,11.7,12.5c0.6,1,0.7,2.8,2.2,2.6
				c1.6-0.2,2-1.9,2.5-3.2C138.8,111,139.4,109.3,140.2,107.2z"/>
			<path class="st18" d="M133.3,180.8c0,29.2-0.1,58.3,0.1,87.5c0,3.8-2.1,3.2-4.5,3.4c-3.1,0.3-3.5-1.2-3-3.7
				c0.2-1.4,0.5-3.1,0-4.2c-4.8-10.5-0.9-20.8,1.2-30.9C130.6,215.6,134.2,198.5,133.3,180.8z"/>
			<path class="st14" d="M138.9,133.7c8.5-7.2,14-16.6,19.9-26.6c4.5,5.9,7.9,11.8,9.8,18.6c0.6,2.4,0.1,4.1-2.3,5.2
				c-2.6,1.2-5.2,2.4-7.6,3.9c-4.4,2.7-8.7,3.9-13.3,0.6C143.3,134.1,140.3,137,138.9,133.7z"/>
			<path class="st17" d="M164.5,109.9c1.3,0.4,2.7,1,4,1.3c8.1,1.8,9.2,0.9,10-7.5c0.1-1.3-1.3-4.3,2-3.5c2.2,0.5,6.2-1.8,6.2,3.5
				c0,4,0.7,8.1,6.6,7.3c1.6-0.2,1.6,1.1,1.2,2.2c-1.1,3-1.9,6.1-5.9,6.9c-2.4,0.5-4.7,1.8-7,2.6c-3.2,1-6.5,4.7-9.1,3.3
				c-2.4-1.3-3.2-5.7-4.6-8.8C166.8,114.8,164.9,112.7,164.5,109.9L164.5,109.9z"/>
			<path class="st19" d="M107.8,70c1.4,2.2,2.8,4.4,4.1,6.6c1,4.3,2,8.6,3.1,13c-4.4,5.6-6,5.9-11.7,2.1c-3-0.7-5.2-2.4-6.4-5.3
				c-1.9-2.1-4.2-4-5.2-7.3c3.5,0.3,5.7,2.7,8.4,4c1.8,0.9,3.5,1.4,4.8-0.3c1.4-1.8-0.4-3-1.3-4.2c-2.5-3.3-6.4-4.3-10.2-5.2
				c0.5-2.1,2.6,0.1,3.1-1.7c-0.4-1.6-4.3-0.7-3.5-2.6c0.9-2.1,3-4,6.3-2.8C102.2,67.3,105.7,67,107.8,70z"/>
			<path class="st20" d="M113.3,166.8c-7.3,10.9-5.3,22.9-4.8,34.8c0.5,13.1,0.8,26.1,1.2,39.2c0.3,10.1-3.9,17.2-13.5,20.9
				c-7.3,2.9-14.6,5.8-21.9,8.7c-1.6,0.6-3.2,1.7-5.3,0.3c4.3-3.6,9.5-5,14.4-6.7c5.2-1.9,10.5-3.6,15.3-6.3
				c4.3-2.4,6.3-5.9,6.9-10.7c1.6-12.9,0.8-25.7,0.3-38.6c-0.4-10.5-1.4-21.1,0.7-31.6C107.5,172.7,108.8,168.8,113.3,166.8z"/>
			<path class="st21" d="M117.7,163.8c11.3-5.7,23.3-7.9,36.1-8.2c-4.7,3.2-9.3,6.5-14,9.7C128.5,173.2,128.5,173.2,117.7,163.8z"/>
			<path class="st2" d="M181,59.5c0.5-2.7-2.5-3.6-4.4-5.3c-1.7-1.6-5.2-2.7-4.5-5.2c0.6-2.4,3.5-4.1,6.1-4.7c3-0.7,5.8,0.3,7.6,2.8
				c2.4,3.3,3.5,7,1.8,11.1c-1,2.3-1.7,4.8-3.2,6.8c-2.9,4.1-3.3,8-0.3,12.2c1,1.5,2,3.5,0.4,4.8c-1.5,1.2-3.5-0.2-4.8-1.2
				c-3.2-2.4-5.4-4.9-2.5-9.3C179.3,68.1,180.7,64.3,181,59.5z"/>
			<path class="st22" d="M216.3,218.2c-2,1.9-3.9,1.3-5.5,1.3c-9.8,0.1-19.7,0.3-29.5-0.1c-4.9-0.2-6,1.5-5.9,6.1
				c0.3,13.2,0.1,26.5,0.1,39.7c0,1.8,0.9,3.9-1,5.5c-2.1-0.6-1.4-2.3-1.4-3.6c0-15,0-30.1,0-45.1c0-2.4-0.2-4.6,3.5-4.5
				c12.5,0.1,25,0.1,37.5,0.1C214.6,217.6,215.2,217.9,216.3,218.2z"/>
			<path class="st17" d="M221.9,90.6c-0.5,4-2.8,8.4-5.1,12.5c-1.4,2.5-3.8-0.2-5.5-0.9c-6.5-2.7-6.6-3.2-2.5-8.9
				c1.7-2.3,3.4-4.6,5.3-6.7c1.4-1.4,2.2-4.6,4.5-3.7C221.3,83.9,222,86.9,221.9,90.6z"/>
			<path class="st23" d="M157.5,79.3c1.8,0.2,2.2,2.5,3.2,4c1.3,2,4.6,3.9,3.6,6.1c-1.4,3.1-4.7,5.3-6.3,8.6
				c-0.1,0.2-0.6,0.3-0.9,0.4c-1.7,0.1-8.5-5.9-8.5-7.4C148.7,86.4,153.6,79.4,157.5,79.3z"/>
			<path class="st24" d="M135.6,153.1c-3.2-2.2,1.5-5.2-0.7-7.5c1.5-0.2,4.1,0.4,3.8-1.7c-0.6-4-4.7-2.1-7-3.2
				c4.7-2.8,15.9-2.4,19.8,0.7c2.8,2.2,2.5,4.8-0.8,6.1C145.6,149.4,140.6,151.2,135.6,153.1z"/>
			<path class="st25" d="M96,184.7c0.7,20.1,1.6,40.2-1.5,60.3C93.7,224.9,93.2,204.8,96,184.7z"/>
			<path class="st26" d="M168.8,99.5c0.7-5.2,1.4-10.5,5.3-14.7c0.7-0.8,1.6-1.8,2.7-1.2c1.5,0.8,0.7,2.2,0.5,3.3
				c-0.8,4.5-1.5,9.1-2.5,13.6c-0.4,1.8,0.4,4.5-3.3,4.1C167.7,104.3,169.1,101.7,168.8,99.5z"/>
			<path class="st27" d="M114.3,112c-6.5-7.7-13-15.4-19.5-23.1c-2-2.4,0.1-1.5,1.1-1.6c3,0.8,4.7,3,6.4,5.3
				c5.3,5.4,9.2,11.8,12.9,18.4C115.7,112,115.1,112.1,114.3,112z"/>
			<path class="st28" d="M111,162.4c-9.4-3.5-11.8-1.9-12.3,7.1c-0.2,2.7-0.3,5.4-0.5,8c-0.1,1-0.1,2.3-1.7,1.9
				c-1-0.2-2.4-0.7-2.2-1.9c0.9-5.2,0.2-10.9,3.8-15.4C101.7,157.5,105.4,157.3,111,162.4z"/>
			<path class="st29" d="M175,148.6c2-3.5,2.3-7.2,6.7-3.5c1.8,1.6,4.5-0.3,6.7-0.9c3.6-0.9,7.2-2.1,10.8-3c1-0.2,2.5-1.6,3.1,0.5
				c0.5,1.8-0.5,2.5-2.2,2.8C192.1,145.8,184.2,147.1,175,148.6z"/>
			<path class="st30" d="M148.5,65.6c-0.8,0.2-1.7,0.4-3.9,0.9c3.4-3,5.8-5.1,8.3-7.3c4.8-2.1,8.8-6.3,14.7-5.5c0.7,0,1.3,0.1,2,0.2
				c1.7,1.5,0.9,2.3-0.9,2.7c-3.8,0.8-7.4,2-10.5,4.3C154.4,61.5,151.9,64.4,148.5,65.6z"/>
			<path class="st31" d="M199.2,93.9c0.2-3.6,2.7-4,4.3-5.2c2.5-2.1,5-4,7.1-6.5c0.7-1,1.4-3.2,3.1-1.8c1.5,1.2-0.2,2.6-1,3.7
				C209.5,88.7,205.2,91.9,199.2,93.9z"/>
			<path class="st32" d="M202.3,137.5c-6.3,3-13,4.5-19.8,6.2c-0.2-0.5-0.3-1.1-0.5-1.6c6.6-2.1,13.2-4.1,19.7-6.2
				C201.9,136.4,202.1,136.9,202.3,137.5z"/>
			<path class="st33" d="M164.6,109.9c-4.8-5.8-4.5-10.5,1.2-14.8C165.4,100.2,165,105.1,164.6,109.9
				C164.5,109.9,164.6,109.9,164.6,109.9z"/>
			<path class="st34" d="M152.7,151.1c4.2-2.7,8.6-4.5,14.2-4.8C163.7,153.9,157,149.1,152.7,151.1z"/>
			<path class="st35" d="M201.7,107.7c3.5,1.9,6.3,3.3,9,4.9c0.3,0.2,0.2,1.3,0.1,1.9c-0.2,0.8-1,1-1.8,0.7c-2.9-1-5.5-2.5-7.8-4.4
				c-0.6-0.5-0.7-1.2-0.3-1.9C201.2,108.3,201.5,107.7,201.7,107.7z"/>
			<path class="st36" d="M138.9,133.7c1.8,1.8,4.6-0.2,6.4,1.7c-0.5,0-1.1-0.1-1.6,0c-8.9,2.4-13.5-3.1-17.7-9.5
				c-0.5-1,0-1.1,0.8-0.9c2.5,2.5,5,5,7.6,7.4C135.6,133.6,136.9,135.1,138.9,133.7z"/>
			<path class="st37" d="M153.5,108.3c-3.4,1.2-11-1.8-12-4.5c-0.2-0.4-0.1-1.1,0.2-1.4c0.2-0.3,1.1-0.5,1.3-0.3
				C146,104.9,150.1,105.9,153.5,108.3z"/>
			<path class="st27" d="M233.3,105.1c-4.4,2.1-9,1.4-13.6,0.9C224,103.3,228.7,105,233.3,105.1z"/>
			<path class="st38" d="M213.9,106.9c-0.2,0.3-0.4,0.8-0.8,1.1c-0.2,0.2-0.7,0.4-1,0.3c-3.2-1.1-6.2-2.7-8.6-5.2
				c-0.5-0.6,0.2-1.8,0.7-1.5c3.2,1.4,6.3,3.1,9.5,4.7C213.8,106.3,213.8,106.6,213.9,106.9z"/>
			<path class="st39" d="M156.2,103.9c-4.5-0.7-7.6-3.8-11-6.5c0.3-0.5,0.5-0.9,0.8-1.4c3.6,2.2,7.1,4.4,10.7,6.7
				C156.5,103.1,156.4,103.5,156.2,103.9z"/>
			<path class="st40" d="M167.6,53.7c-5.4,0.6-9.5,4.5-14.7,5.5c1.7-2.9,5.3-3.1,7.5-5.3c1.9-0.7,3.8-1.5,5.8-2.1
				C167.7,51.5,168.8,51.9,167.6,53.7z"/>
			<path class="st41" d="M208.1,78.9c-1.3,4.5-4.1,7.5-8.6,8.6C202,84.3,205.7,82.2,208.1,78.9z"/>
			<path class="st42" d="M158.1,60.9c1.9-3.5,5.8-3.3,8.9-4.7c1.1-0.5,3.2,0.1,2.5-2.3c1.1,0.1,2.2,0.5,2.3,1.6
				c0,0.5-1.1,1.2-1.9,1.4C166,58.3,162.1,59.6,158.1,60.9z"/>
			<path class="st43" d="M195.6,105.5c0.2,2.7-1.5,2.4-2.8,2.6c-1.2,0.2-2-0.3-2.1-1.7c-0.1-2.5,2-2,3.3-2.4
				C195.8,103.6,195.4,105.1,195.6,105.5z"/>
			<path class="st44" d="M169.3,85.6c-3.7-1.1-5.2-4-5.8-7.7C165.5,80.5,167.4,83,169.3,85.6z"/>
			<path class="st45" d="M110.5,101.5c2.9-2.3,4.8-3.9,6.8-5.4c0.3,0.4,0.7,0.8,1,1.2C116.7,99.3,115,101.2,110.5,101.5z"/>
			<path class="st46" d="M111.8,97.7c-1.2-0.1-2.3-0.9-1.8-1.5c1.2-1.4,2.9-2.4,4.5-3.3c0.6-0.3,1.4,0.5,1.2,1.2
				C115.2,96.2,113.3,96.9,111.8,97.7z"/>
			<path class="st47" d="M178.9,93.7c2.7-0.4,4.8,0,7.2,1C182.5,96.6,182.5,96.6,178.9,93.7z"/>
			<path class="st48" d="M126.8,125c-0.3,0.3-0.6,0.6-0.8,0.9c-2.5-2.5-5-5.1-6.8-8.2c-0.1-0.6,0.2-0.8,0.8-0.7
				C122.2,119.7,124.5,122.4,126.8,125z"/>
			<path class="st49" d="M166.8,78c1.8,1.5,4,2.6,5.1,5.8C168.3,83,167.6,80.4,166.8,78z"/>
			<path class="st50" d="M175.4,108c-3.4,1.4-5.4,0.9-8.4-0.5C170.3,106.2,172.2,106.7,175.4,108z"/>
			<path class="st51" d="M102.3,92.6c-2.2-1.8-4.3-3.6-6.4-5.3c0.3-0.3,0.7-0.6,1-1c2.1,1.8,4.3,3.5,6.4,5.3
				C102.9,92,102.6,92.3,102.3,92.6z"/>
			<path class="st52" d="M186.7,90.9c-3.2,1.3-5.1,0.4-7.9-1.9C182.1,89.3,184.2,89.1,186.7,90.9z"/>
			<path class="st53" d="M161.2,136.6c2.5,2.1,3.2,4.3,4.8,7.3C162.2,142.2,161.9,139.8,161.2,136.6z"/>
			<path class="st54" d="M172.6,145.2c-0.2,2.6-0.8,4.1-3.4,4.7C169.3,147.6,169.7,146,172.6,145.2z"/>
			<path class="st48" d="M114.3,112c0.3-0.3,0.6-0.6,0.9-1c1.6,2,3.2,4.1,4.7,6.1c-0.2,0.2-0.5,0.4-0.8,0.7
				C117.2,116.1,115.5,114.2,114.3,112z"/>
			<path class="st55" d="M199.1,82.3c1.5-1.3,3-2.7,4.5-4C203.6,81.5,201.8,82.4,199.1,82.3z"/>
			<path class="st56" d="M181.2,53c-1.7-0.3-2.7-1.3-2.7-3.2c0-1.9,1.2-3.1,3-3.1c2.1,0,3.3,1.5,3.1,3.5
				C184.5,51.8,183.3,53.1,181.2,53z"/>
		</g>
	</g>
</g>
</svg>
